# xmcd
#
# Track frame offsets: 
#        150
#        13487
#        27616
#        39181
#        50986
#        62946
#        73855
#        84432
#        98495
#        110986
#        126596
#        139383
#        148875
#        162350
#
# Disc length: 2227 seconds
#
# Revision: 0
# Processed by: cddbd v1.5.2PL0 Copyright (c) Steve Scherf et al.
# Submitted via: ExactAudioCopyFreeDBPlugin 1.0
#
DISCID=e208b10e
DTITLE=The Hellbenders - The Hellbenders
DYEAR=1990
DGENRE=Old Time
TTITLE0=1. Altamont
TTITLE1=2. Train on the Island
TTITLE2=3. Chinquapin
TTITLE3=4. Tight Old Sally Gal
TTITLE4=5. Red Mountain Wine
TTITLE5=6. Betty Baker
TTITLE6=7. She Took it Off
TTITLE7=8. Indian War Whoop
TTITLE8=9. Cider
TTITLE9=10. Baby Waltz
TTITLE10=11. Poor Little Mary (Sittin' in the Corner)
TTITLE11=12. Bravest Cowboy
TTITLE12=13. Sambo
TTITLE13=14. Woop Reprise
EXTD=
EXTT0=
EXTT1=
EXTT2=
EXTT3=
EXTT4=
EXTT5=
EXTT6=
EXTT7=
EXTT8=
EXTT9=
EXTT10=
EXTT11=
EXTT12=
EXTT13=
PLAYORDER=
